<svg width="300" height="120" viewBox="0 0 300 120" fill="none" xmlns="http://www.w3.org/2000/svg">
<g id="SodaLogo300-120">
<g id="icone">
<path id="Vector 6" d="M90.8333 51.6061L91.0362 53.0202H90.6812L90.1739 52.8687L76.2246 41.7071L74.1449 40.0404L72.471 38.7778L70.8985 37.8182L68.8696 36.7576L67.1957 35.9495L65.6739 35.2929L63.5435 34.6869L61.3623 34.3333L59.2826 34.0808L56.8478 33.8788L54.2609 34.0808L51.8768 34.4848L50.0507 34.7879L48.0725 35.3939L46.2464 36.101L44.2681 36.9596L42.442 38.0707L40.9203 39.2828L39.6014 40.3434L38.3333 41.404L37.0145 42.7172L35.5942 44.3838L34.4275 46.0505L33.413 47.7172L32.3986 49.6869L31.6377 51.303L30.8261 53.9293L30.4203 55.697L30.2174 57.4646L30.0145 59.1313V61.404L30.2174 63.8283L30.6232 66.2525L30.9783 68.1717L31.4855 70.0909L32.2971 71.7071L32.9565 73.2222L33.6159 74.6364L34.8841 76.6061L36.3043 78.1717L37.6232 79.7879L39.6014 81.7071L54.8188 94.0808L56.442 95.3939V96H55.9348H54.6667L52.8913 95.8485L51.2681 95.596L49.3406 95.2424L47.4638 94.7374L45.942 94.2828L44.4203 93.6768L42.5435 92.9697L40.6667 91.9596L38.7899 91L36.9638 89.8889L35.0362 88.4747L33.1087 86.8586L31.2319 84.8889L29.5072 82.9697L28.2391 81.202L27.0217 79.3333L26.058 77.7172L25.0942 75.6465L24.1812 73.7778L23.2174 71.404L22.6594 68.5758L22.4058 66.404L22 62.6667V59.9899L22 57.5152L22.4058 54.8384L22.9638 52.5152L23.5725 50.4949L24.2319 48.4747L25.0435 46.5051L25.7029 45.0909L26.3623 43.7778L27.3768 42.1616L28.3406 40.7475L29.4058 39.2828L30.471 38.0707L31.7899 36.6566L32.7536 35.6465L34.1232 34.4848L35.5942 33.3232L36.913 32.3131L38.1304 31.404L39.3986 30.596L40.9203 29.7879L41.8841 29.2828L43.9638 28.4242L45.7391 27.7172L47.2609 27.2121L49.1884 26.9596L51.1667 26.5051L53.5507 26.202L55.4783 26H57.3551H58.9783L61.3116 26.202L63.1377 26.5051L65.2174 26.9596L67.3985 27.5657L69.3261 28.1717L71.2029 28.8283L73.2826 29.7374L75.1087 30.798L76.7319 31.8586L78.913 33.3737L80.7899 34.8889L82.3116 36.404L83.6812 37.8182L84.6957 39.0808L85.7609 40.5455L86.7246 41.9091L87.4348 43.2222L88.0942 44.3333L88.7536 45.697L89.3623 47.1111L89.8188 48.1717L90.1739 49.2828L90.529 50.3939L90.8333 51.6061Z" fill="#FC5130"/>
<path id="Vector 4" d="M54.3116 63.6263L81.5508 85.5455H81.9565L86.0652 80.596L86.3696 79.9394L86.0652 79.3838L59.587 58.0707L58.6739 57.5152L57.5073 57.2121H56.4421L55.4783 57.5152L54.5652 58.0707L53.9565 58.5758L53.6015 59.3838L53.2464 60.3434V61.303V62.2121L53.6015 62.9192L54.3116 63.6263Z" fill="#FC5130"/>
<path id="Vector 5" d="M68.8696 93.8787L67.3478 94.2322L42.8478 74.2827L41.4275 72.7171L40.1594 70.7474L38.9927 68.7272L38.2319 66.8585L37.9782 64.9393L37.5724 63.1211V61.505V60.1918V58.8282L37.8768 57.212L38.2319 55.7979L38.9927 54.0807L39.4493 52.8181L39.9058 51.7575L40.413 50.7979L41.2246 49.4848L41.9855 48.5252L43 47.4141L43.8623 46.505L44.7753 45.6464L46.0942 44.6868L47.3116 43.9797L48.529 43.2221L49.6956 42.7171L51.3188 42.0605L52.6377 41.707L54.058 41.4545L55.529 41.3029H56.7971H57.9638L59.2319 41.5555L60.5 41.808L61.7681 42.0605L62.8333 42.3636L63.9493 42.7171L65.0145 43.2221L66.1304 43.7777L67.1956 44.3333L68.2609 45.0403L69.1739 45.7979L90.8333 63.3737L91.7971 64.2827L92 65.0403L90.1739 72.212H89.5652L88.7536 71.6565L65.0145 52.5656L63.6449 51.5555L62.2246 50.7979L60.9058 50.1918L59.8913 49.7878L58.9782 49.5858L57.9638 49.4848H56.5435L55.0725 49.5858L53.5507 49.7878L52.384 50.1918L51.1667 50.7979L49.9493 51.5555L48.8333 52.5656L47.9203 53.6767L47.058 54.8888L46.3478 55.7979L45.7391 56.8585L45.3333 58.4242V60.1918V62.2625L45.7391 64.2827L46.3478 65.7474L47.058 67.212L47.9203 68.3231L48.8333 69.2827L70.2898 86.707L74.2464 89.7373L75.1087 90.3939V90.8484L73.5869 91.7575L70.7464 93.0706L68.8696 93.8787Z" fill="#FC5130"/>
</g>
<path id="acert.io" d="M126.8 68.944V58.672C126.8 52.912 123.776 49.792 116.72 49.792C113.84 49.792 110.48 50.416 107.312 51.664L108.848 56.224C111.44 55.36 113.888 54.88 115.568 54.88C118.784 54.88 120.128 55.888 120.128 59.056V60.304H117.2C109.664 60.304 105.488 63.328 105.488 68.896C105.488 73.504 108.656 76.768 113.744 76.768C116.768 76.768 119.552 75.712 121.376 72.928C122.432 75.472 124.352 76.432 127.232 76.672L128.672 72.16C127.424 71.728 126.8 71.008 126.8 68.944ZM115.616 71.872C113.504 71.872 112.352 70.576 112.352 68.32C112.352 65.536 114.176 64.192 117.872 64.192H120.128V69.04C119.072 70.864 117.584 71.872 115.616 71.872ZM144.218 49.792C136.778 49.792 132.074 55.408 132.074 63.472C132.074 71.584 136.73 76.768 144.314 76.768C147.674 76.768 150.362 75.664 152.666 73.792L149.69 69.52C147.818 70.72 146.522 71.296 144.65 71.296C141.434 71.296 139.274 69.328 139.274 63.424C139.274 57.52 141.29 55.072 144.698 55.072C146.57 55.072 148.058 55.648 149.69 56.896L152.666 52.864C150.266 50.8 147.626 49.792 144.218 49.792ZM177.333 62.704C177.333 54.592 173.061 49.792 165.861 49.792C158.421 49.792 154.293 55.744 154.293 63.424C154.293 71.392 158.565 76.768 166.725 76.768C170.709 76.768 173.877 75.328 176.373 73.312L173.541 69.472C171.333 71.008 169.509 71.68 167.349 71.68C164.085 71.68 161.781 70.24 161.301 65.344H177.189C177.237 64.624 177.333 63.568 177.333 62.704ZM170.565 61.072H161.301C161.637 56.272 163.317 54.448 166.005 54.448C169.269 54.448 170.565 56.944 170.565 60.784V61.072ZM195.369 49.84C192.441 49.84 189.945 51.952 188.745 55.504L188.169 50.56H182.217V76H189.033V62.992C189.897 58.816 191.385 56.464 194.505 56.464C195.369 56.464 195.993 56.608 196.809 56.8L197.913 50.224C197.097 49.984 196.281 49.84 195.369 49.84ZM214.208 70.48C213.152 71.056 212.24 71.344 211.328 71.344C209.6 71.344 208.784 70.384 208.784 67.888V55.36H213.968L214.64 50.56H208.784V44.176L201.968 44.992V50.56H198.176V55.36H201.968V68.032C201.968 73.696 204.656 76.72 209.936 76.768C212.192 76.768 214.688 76.096 216.56 74.8L214.208 70.48ZM222.259 68.56C220.003 68.56 218.179 70.432 218.179 72.64C218.179 74.896 220.003 76.768 222.259 76.768C224.563 76.768 226.387 74.896 226.387 72.64C226.387 70.432 224.563 68.56 222.259 68.56ZM234.75 37.456C232.302 37.456 230.622 39.184 230.622 41.44C230.622 43.696 232.302 45.424 234.75 45.424C237.198 45.424 238.926 43.696 238.926 41.44C238.926 39.184 237.198 37.456 234.75 37.456ZM238.158 50.56H231.342V76H238.158V50.56ZM255.548 49.792C247.868 49.792 243.308 55.168 243.308 63.28C243.308 71.728 247.916 76.768 255.5 76.768C263.132 76.768 267.692 71.344 267.692 63.28C267.692 54.832 263.132 49.792 255.548 49.792ZM255.548 54.88C258.86 54.88 260.588 57.424 260.588 63.28C260.588 69.088 258.86 71.68 255.5 71.68C252.14 71.68 250.412 69.136 250.412 63.28C250.412 57.472 252.14 54.88 255.548 54.88Z" fill="#FC5130"/>
</g>
</svg>
